<svg width="113" height="113" viewBox="0 0 113 113" fill="none" xmlns="http://www.w3.org/2000/svg">
<circle cx="56.5" cy="56.5" r="56.5" fill="#9AFF89"/>
<path d="M74.1032 43.0268C75.6063 41.4079 75.5124 38.8769 73.8935 37.3738C72.2745 35.8707 69.7436 35.9647 68.2405 37.5836L74.1032 43.0268ZM35.8734 74.1674C35.9553 76.375 37.8114 78.0982 40.019 78.0163L75.9942 76.6813C78.2018 76.5994 79.9251 74.7433 79.8431 72.5357C79.7612 70.3281 77.9052 68.6049 75.6976 68.6868L43.7196 69.8734L42.5329 37.8955C42.451 35.6878 40.595 33.9646 38.3873 34.0465C36.1797 34.1285 34.4565 35.9845 34.5384 38.1921L35.8734 74.1674ZM68.2405 37.5836L36.9393 71.2974L42.802 76.7406L74.1032 43.0268L68.2405 37.5836Z" fill="#050611"/>
</svg>
