<svg width="11" height="11" viewBox="0 0 11 11" fill="none" xmlns="http://www.w3.org/2000/svg">
<path d="M4.14455 2.7234C4.03844 2.73011 3.93163 2.72519 3.82513 2.72519H3.45996C3.47693 2.75327 3.48655 2.77087 3.49768 2.78732C4.11009 3.6896 4.72259 4.59184 5.33518 5.49401C5.88087 6.2979 6.42694 7.10152 6.97338 7.90485C6.98337 7.91986 6.99619 7.93265 7.01108 7.94247C7.02596 7.95228 7.04261 7.95892 7.06003 7.96198C7.28818 7.96664 7.51645 7.96448 7.74468 7.96403C7.75531 7.96248 7.76576 7.95981 7.77586 7.95605C7.75631 7.92572 7.74161 7.90185 7.72592 7.87869C7.45469 7.47864 7.18339 7.07864 6.91202 6.67869C6.03427 5.38497 5.15678 4.09105 4.27958 2.79693C4.26665 2.7723 4.24692 2.75218 4.22289 2.73909C4.19886 2.726 4.1716 2.72054 4.14455 2.7234Z" fill="black"/>
<path d="M8.02063 0.121094H3.24752C2.5828 0.121094 1.94531 0.392917 1.47529 0.876764C1.00527 1.36061 0.741211 2.01685 0.741211 2.70111V7.61461C0.741211 8.29888 1.00527 8.95512 1.47529 9.43896C1.94531 9.92281 2.5828 10.1946 3.24752 10.1946H8.02063C8.68535 10.1946 9.32283 9.92281 9.79286 9.43896C10.2629 8.95512 10.5269 8.29888 10.5269 7.61461V2.70111C10.5269 2.01685 10.2629 1.36061 9.79286 0.876764C9.32283 0.392917 8.68535 0.121094 8.02063 0.121094ZM8.39583 8.33796C7.87826 8.33824 7.36074 8.33726 6.84321 8.33962C6.821 8.34095 6.79888 8.33579 6.7794 8.32473C6.75992 8.31367 6.74388 8.29717 6.73312 8.27712C6.24491 7.54291 5.75588 6.80927 5.26605 6.0762C5.25335 6.05718 5.23939 6.03903 5.21966 6.01161C4.98367 6.2938 4.75364 6.56847 4.52402 6.8435C4.11902 7.32859 3.71391 7.81359 3.3087 8.2985C3.2938 8.31832 3.27231 8.33178 3.24837 8.33631C3.09701 8.3395 2.94555 8.33805 2.77341 8.33805L4.9978 5.6741L2.77159 2.33572H2.86557C3.37044 2.33567 3.87532 2.33707 4.38017 2.33383C4.40839 2.33142 4.4367 2.33733 4.46177 2.35088C4.48685 2.36443 4.50765 2.38506 4.52175 2.41034C4.97747 3.098 5.43463 3.78464 5.89323 4.47027C5.90737 4.49143 5.92255 4.51184 5.94334 4.54119C6.03582 4.43072 6.1245 4.325 6.21297 4.21908C6.72382 3.60739 7.2349 2.99591 7.74621 2.38464C7.76371 2.36068 7.78907 2.34408 7.81757 2.33795C7.96686 2.33363 8.11632 2.33579 8.28879 2.33579L6.16591 4.87866L8.46934 8.33231C8.43805 8.33478 8.41694 8.33795 8.39583 8.33796Z" fill="black"/>
</svg>
