<svg width="35" height="35" viewBox="0 0 35 35" fill="none" xmlns="http://www.w3.org/2000/svg">
<circle cx="17.3994" cy="17.1113" r="17" fill="white"/>
<circle cx="17.401" cy="17.1117" r="11.9" fill="black"/>
<circle cx="17.3999" cy="17.1113" r="8.5" fill="white"/>
<path d="M14.3675 12.5922C14.1705 12.6047 13.9723 12.5955 13.7746 12.5955H13.0967C13.1282 12.6477 13.146 12.6803 13.1667 12.7109C14.3036 14.3858 15.4406 16.0607 16.5777 17.7354C17.5907 19.2277 18.6044 20.7195 19.6188 22.2108C19.6374 22.2386 19.6612 22.2624 19.6888 22.2806C19.7164 22.2988 19.7473 22.3111 19.7797 22.3168C20.2032 22.3255 20.6269 22.3215 21.0506 22.3206C21.0703 22.3178 21.0897 22.3128 21.1085 22.3058C21.0722 22.2495 21.0449 22.2052 21.0158 22.1622C20.5123 21.4196 20.0087 20.677 19.5049 19.9346C17.8755 17.533 16.2466 15.131 14.6182 12.7287C14.5942 12.683 14.5576 12.6456 14.5129 12.6213C14.4683 12.597 14.4177 12.5869 14.3675 12.5922Z" fill="black"/>
<path d="M21.5629 7.76147H12.7024C11.4684 7.76147 10.285 8.26607 9.41251 9.16426C8.53999 10.0625 8.0498 11.2807 8.0498 12.5509V21.6721C8.0498 22.9423 8.53999 24.1605 9.41251 25.0587C10.285 25.9569 11.4684 26.4615 12.7024 26.4615H21.5629C22.7969 26.4615 23.9803 25.9569 24.8528 25.0587C25.7253 24.1605 26.2155 22.9423 26.2155 21.6721V12.5509C26.2155 11.2807 25.7253 10.0625 24.8528 9.16426C23.9803 8.26607 22.7969 7.76147 21.5629 7.76147ZM22.2594 23.0148C21.2987 23.0154 20.338 23.0135 19.3772 23.0179C19.336 23.0204 19.2949 23.0108 19.2588 22.9903C19.2226 22.9698 19.1928 22.9391 19.1729 22.9019C18.2666 21.539 17.3588 20.1771 16.4495 18.8162C16.4259 18.7809 16.4 18.7472 16.3634 18.6963C15.9253 19.2202 15.4983 19.73 15.072 20.2406C14.3202 21.1411 13.5682 22.0414 12.816 22.9416C12.7883 22.9784 12.7484 23.0034 12.704 23.0118C12.423 23.0177 12.1418 23.015 11.8223 23.015L15.9515 18.0698L11.8189 11.8726H11.9934C12.9306 11.8725 13.8678 11.8751 14.805 11.8691C14.8574 11.8646 14.9099 11.8756 14.9565 11.9007C15.003 11.9259 15.0416 11.9642 15.0678 12.0111C15.9138 13.2876 16.7624 14.5623 17.6138 15.8351C17.64 15.8743 17.6682 15.9122 17.7068 15.9667C17.8784 15.7616 18.0431 15.5654 18.2073 15.3688C19.1556 14.2333 20.1044 13.0981 21.0535 11.9634C21.086 11.9189 21.1331 11.8881 21.186 11.8767C21.4631 11.8687 21.7406 11.8727 22.0607 11.8727L18.1199 16.5932L22.3959 23.0044C22.3378 23.0089 22.2986 23.0148 22.2594 23.0148Z" fill="black"/>
</svg>
