<svg width="22" height="22" viewBox="0 0 22 22" fill="none" xmlns="http://www.w3.org/2000/svg">
<path d="M7.43162 5.68325C7.19988 5.69792 6.96663 5.68718 6.73402 5.68717H5.93652C5.97358 5.7485 5.99458 5.78693 6.01891 5.82286C7.35637 7.7934 8.69403 9.76381 10.0319 11.7341C11.2236 13.4898 12.4162 15.2448 13.6096 16.9992C13.6314 17.032 13.6594 17.06 13.6919 17.0814C13.7245 17.1028 13.7608 17.1173 13.7989 17.124C14.2971 17.1342 14.7956 17.1295 15.2941 17.1285C15.3173 17.1251 15.3401 17.1193 15.3622 17.1111C15.3195 17.0448 15.2874 16.9927 15.2531 16.9421C14.6608 16.0684 14.0683 15.1948 13.4756 14.3214C11.5586 11.496 9.64228 8.67012 7.72651 5.84384C7.69828 5.79006 7.6552 5.74611 7.60272 5.71753C7.55023 5.68894 7.49069 5.67702 7.43162 5.68325Z" fill="black"/>
<path d="M15.8978 0H5.47362C4.02192 0 2.62969 0.593645 1.60319 1.65034C0.576683 2.70703 0 4.14022 0 5.63461V16.3654C0 17.8598 0.576683 19.293 1.60319 20.3497C2.62969 21.4064 4.02192 22 5.47362 22H15.8978C17.3495 22 18.7417 21.4064 19.7682 20.3497C20.7947 19.293 21.3714 17.8598 21.3714 16.3654V5.63461C21.3714 4.14022 20.7947 2.70703 19.7682 1.65034C18.7417 0.593645 17.3495 0 15.8978 0ZM16.7172 17.9451C15.5869 17.9458 14.4566 17.9436 13.3264 17.9488C13.2779 17.9517 13.2296 17.9404 13.187 17.9162C13.1445 17.8921 13.1095 17.8561 13.086 17.8123C12.0197 16.2088 10.9517 14.6066 9.88196 13.0056C9.85423 12.964 9.82376 12.9244 9.78067 12.8645C9.26527 13.4808 8.7629 14.0807 8.26143 14.6813C7.37692 15.7407 6.49219 16.7999 5.60723 17.859C5.57469 17.9022 5.52778 17.9316 5.47548 17.9415C5.14492 17.9485 4.81414 17.9453 4.43819 17.9453L9.29613 12.1274L4.43421 4.8366H4.63948C5.74207 4.8365 6.84471 4.83955 7.94727 4.83248C8.0089 4.82721 8.07072 4.84014 8.12548 4.86973C8.18024 4.89932 8.22568 4.94435 8.25647 4.99957C9.25173 6.50138 10.2501 8.00096 11.2517 9.49833C11.2826 9.54455 11.3157 9.58911 11.3611 9.65322C11.5631 9.41195 11.7568 9.18107 11.95 8.94975C13.0657 7.61386 14.1818 6.27843 15.2985 4.94344C15.3367 4.89111 15.3921 4.85487 15.4543 4.84147C15.7804 4.83204 16.1068 4.83676 16.4835 4.83676L11.8472 10.3902L16.8778 17.9328C16.8094 17.9382 16.7633 17.9451 16.7172 17.9451Z" fill="black"/>
</svg>
